<svg
      xmlns="http://www.w3.org/2000/svg"
      viewBox="0 0 208 208"
      className="_1ua47a02"
    >
      <path
        fill="#0ECAD4"
        d="M133 208c1.66 0 3-1.34 3-3v-42.51c0-1.59-.63-3.12-1.76-4.24l-12.49-12.49a5.987 5.987 0 0 0-4.24-1.76H90.48c-1.59 0-3.12.63-4.24 1.76l-12.49 12.49a5.987 5.987 0 0 0-1.76 4.24V205c0 1.66 1.34 3 3 3H133ZM158.24 73.76l-12.49 12.49a5.987 5.987 0 0 0-1.76 4.24v27.03c0 1.59.63 3.12 1.76 4.24l12.49 12.49a5.987 5.987 0 0 0 4.24 1.76h42.51c1.66 0 3-1.34 3-3v-58c0-1.66-1.34-3-3-3h-42.51c-1.59 0-3.12.63-4.24 1.76v-.01ZM75 0c-1.66 0-3 1.34-3 3v42.51c0 1.59.63 3.12 1.76 4.24l12.49 12.49A5.987 5.987 0 0 0 90.49 64h27.03c1.59 0 3.12-.63 4.24-1.76l12.49-12.49a5.987 5.987 0 0 0 1.76-4.24V3c0-1.66-1.34-3-3-3H75ZM205 144h-42.51c-1.59 0-3.12.63-4.24 1.76l-12.49 12.49a5.987 5.987 0 0 0-1.76 4.24V205c0 1.66 1.34 3 3 3h58c1.66 0 3-1.34 3-3v-58c0-1.66-1.34-3-3-3ZM61 0H18.49c-1.6 0-3.12.63-4.25 1.76L1.76 14.24A5.993 5.993 0 0 0 0 18.49V61c0 1.66 1.34 3 3 3h42.51c1.59 0 3.12-.63 4.24-1.76l12.49-12.49A5.987 5.987 0 0 0 64 45.51V3c0-1.66-1.34-3-3-3ZM144 3v42.51c0 1.59.63 3.12 1.76 4.24l12.49 12.49a5.987 5.987 0 0 0 4.24 1.76H205c1.66 0 3-1.34 3-3V3c0-1.66-1.34-3-3-3h-58c-1.66 0-3 1.34-3 3ZM104 120c-8.84 0-16-7.16-16-16s7.17-16 16-16 16 7.16 16 16-7.17 16-16 16ZM0 147v58c0 1.66 1.34 3 3 3h58c1.66 0 3-1.34 3-3v-42.51c0-1.59-.63-3.12-1.76-4.24l-12.49-12.49a5.987 5.987 0 0 0-4.24-1.76H3c-1.66 0-3 1.34-3 3ZM62.24 86.24 49.75 73.75a5.987 5.987 0 0 0-4.24-1.76H3C1.34 72 0 73.34 0 75v58c0 1.66 1.34 3 3 3h43.2c1.59 0 3.12-.63 4.24-1.76l11.8-11.79a5.987 5.987 0 0 0 1.76-4.24V90.49c0-1.59-.63-3.12-1.76-4.24v-.01Z"
      ></path>
    </svg>